<svg xmlns="http://www.w3.org/2000/svg" viewBox="0 0 400 300"><defs><linearGradient id="screen" x1="0" y1="0" x2="1" y2="1"><stop stop-color="#315bd4"/><stop offset=".45" stop-color="#7ba7f2"/><stop offset="1" stop-color="#bdd7fb"/></linearGradient><filter id="shadow"><feGaussianBlur stdDeviation="7"/></filter></defs><ellipse cx="200" cy="247" rx="105" ry="9" opacity=".13" filter="url(#shadow)"/><path d="M61 112h278l16 95H45z" fill="#b1bbc8"/><path d="M64 106h272l15 91H49z" fill="#303e51"/><rect x="64" y="115" width="16" height="11" rx="2" fill="#7896c4"/><rect x="84" y="115" width="16" height="11" rx="2" fill="#7896c4"/><rect x="104" y="115" width="16" height="11" rx="2" fill="#7896c4"/><rect x="124" y="115" width="16" height="11" rx="2" fill="#7896c4"/><rect x="144" y="115" width="16" height="11" rx="2" fill="#7896c4"/><rect x="164" y="115" width="16" height="11" rx="2" fill="#7896c4"/><rect x="184" y="115" width="16" height="11" rx="2" fill="#7896c4"/><rect x="204" y="115" width="16" height="11" rx="2" fill="#7896c4"/><rect x="224" y="115" width="16" height="11" rx="2" fill="#7896c4"/><rect x="244" y="115" width="16" height="11" rx="2" fill="#7896c4"/><rect x="264" y="115" width="16" height="11" rx="2" fill="#7896c4"/><rect x="284" y="115" width="16" height="11" rx="2" fill="#7896c4"/><rect x="304" y="115" width="16" height="11" rx="2" fill="#7896c4"/><rect x="64" y="130" width="16" height="11" rx="2" fill="#637791"/><rect x="84" y="130" width="16" height="11" rx="2" fill="#98a5b7"/><rect x="104" y="130" width="16" height="11" rx="2" fill="#98a5b7"/><rect x="124" y="130" width="16" height="11" rx="2" fill="#98a5b7"/><rect x="144" y="130" width="16" height="11" rx="2" fill="#637791"/><rect x="164" y="130" width="16" height="11" rx="2" fill="#98a5b7"/><rect x="184" y="130" width="16" height="11" rx="2" fill="#98a5b7"/><rect x="204" y="130" width="16" height="11" rx="2" fill="#98a5b7"/><rect x="224" y="130" width="16" height="11" rx="2" fill="#637791"/><rect x="244" y="130" width="16" height="11" rx="2" fill="#98a5b7"/><rect x="264" y="130" width="16" height="11" rx="2" fill="#98a5b7"/><rect x="284" y="130" width="16" height="11" rx="2" fill="#98a5b7"/><rect x="304" y="130" width="16" height="11" rx="2" fill="#637791"/><rect x="64" y="145" width="16" height="11" rx="2" fill="#637791"/><rect x="84" y="145" width="16" height="11" rx="2" fill="#98a5b7"/><rect x="104" y="145" width="16" height="11" rx="2" fill="#98a5b7"/><rect x="124" y="145" width="16" height="11" rx="2" fill="#98a5b7"/><rect x="144" y="145" width="16" height="11" rx="2" fill="#637791"/><rect x="164" y="145" width="16" height="11" rx="2" fill="#98a5b7"/><rect x="184" y="145" width="16" height="11" rx="2" fill="#98a5b7"/><rect x="204" y="145" width="16" height="11" rx="2" fill="#98a5b7"/><rect x="224" y="145" width="16" height="11" rx="2" fill="#637791"/><rect x="244" y="145" width="16" height="11" rx="2" fill="#98a5b7"/><rect x="264" y="145" width="16" height="11" rx="2" fill="#98a5b7"/><rect x="284" y="145" width="16" height="11" rx="2" fill="#98a5b7"/><rect x="304" y="145" width="16" height="11" rx="2" fill="#637791"/><rect x="64" y="160" width="16" height="11" rx="2" fill="#637791"/><rect x="84" y="160" width="16" height="11" rx="2" fill="#98a5b7"/><rect x="104" y="160" width="16" height="11" rx="2" fill="#98a5b7"/><rect x="124" y="160" width="16" height="11" rx="2" fill="#98a5b7"/><rect x="144" y="160" width="16" height="11" rx="2" fill="#637791"/><rect x="164" y="160" width="16" height="11" rx="2" fill="#98a5b7"/><rect x="184" y="160" width="16" height="11" rx="2" fill="#98a5b7"/><rect x="204" y="160" width="16" height="11" rx="2" fill="#98a5b7"/><rect x="224" y="160" width="16" height="11" rx="2" fill="#637791"/><rect x="244" y="160" width="16" height="11" rx="2" fill="#98a5b7"/><rect x="264" y="160" width="16" height="11" rx="2" fill="#98a5b7"/><rect x="284" y="160" width="16" height="11" rx="2" fill="#98a5b7"/><rect x="304" y="160" width="16" height="11" rx="2" fill="#637791"/><rect x="64" y="175" width="16" height="11" rx="2" fill="#637791"/><rect x="84" y="175" width="16" height="11" rx="2" fill="#98a5b7"/><rect x="104" y="175" width="16" height="11" rx="2" fill="#98a5b7"/><rect x="124" y="175" width="16" height="11" rx="2" fill="#98a5b7"/><rect x="144" y="175" width="16" height="11" rx="2" fill="#637791"/><rect x="164" y="175" width="16" height="11" rx="2" fill="#98a5b7"/><rect x="184" y="175" width="16" height="11" rx="2" fill="#98a5b7"/><rect x="204" y="175" width="16" height="11" rx="2" fill="#98a5b7"/><rect x="224" y="175" width="16" height="11" rx="2" fill="#637791"/><rect x="244" y="175" width="16" height="11" rx="2" fill="#98a5b7"/><rect x="264" y="175" width="16" height="11" rx="2" fill="#98a5b7"/><rect x="284" y="175" width="16" height="11" rx="2" fill="#98a5b7"/><rect x="304" y="175" width="16" height="11" rx="2" fill="#637791"/><rect x="144" y="177" width="111" height="11" rx="2" fill="#c3ccd7"/></svg>
